<svg version="1.0" xmlns="http://www.w3.org/2000/svg"
 width="500.000000pt" height="500.000000pt" viewBox="0 0 500.000000 500.000000"
 preserveAspectRatio="xMidYMid meet">

<g transform="translate(0.000000,500.000000) scale(0.100000,-0.100000)"
fill="#000000" stroke="none">
<path d="M3177 4643 c-4 -3 -7 -327 -7 -720 l0 -713 725 0 725 0 0 720 0 720
-718 0 c-395 0 -722 -3 -725 -7z m1163 -713 l0 -440 -445 0 -445 0 0 440 0
440 445 0 445 0 0 -440z"/>
<path d="M1250 4330 c-13 -8 -15 -52 -18 -275 l-3 -265 -259 0 c-222 0 -261
-2 -274 -16 -14 -13 -16 -49 -16 -233 0 -155 3 -220 12 -229 9 -9 84 -12 275
-12 l263 0 0 -256 c0 -157 4 -263 10 -275 10 -18 24 -19 241 -19 l229 0 10 26
c6 14 10 137 10 275 l0 249 263 0 c191 0 266 3 275 12 9 9 12 74 12 229 0 184
-2 220 -16 233 -13 14 -52 16 -274 16 l-259 0 -3 265 c-3 223 -5 267 -18 275
-8 5 -112 10 -230 10 -118 0 -222 -5 -230 -10z"/>
<path d="M2956 2723 c-185 -39 -381 -160 -489 -300 -256 -333 -249 -775 17
-1095 71 -85 167 -158 281 -213 140 -68 195 -80 375 -80 141 0 166 3 275 31
158 41 237 85 340 188 97 97 138 171 190 341 76 247 56 506 -56 704 -124 219
-335 375 -576 426 -87 19 -268 18 -357 -2z m297 -348 c247 -52 425 -294 404
-548 -16 -191 -123 -345 -297 -430 -82 -40 -89 -42 -197 -45 -135 -5 -215 15
-308 76 -157 103 -236 251 -236 439 0 109 11 155 57 244 108 206 343 314 577
264z"/>
<path d="M740 1088 c-212 -363 -386 -665 -388 -670 -2 -4 348 -8 777 -8 430 0
781 2 781 5 0 11 -773 1335 -779 1335 -4 0 -180 -298 -391 -662z m523 -152
c70 -123 127 -226 127 -229 0 -4 -117 -7 -260 -7 -143 0 -260 3 -260 7 0 11
254 453 260 453 3 -1 62 -101 133 -224z"/>
<path d="M3812 1166 c-58 -58 -102 -111 -102 -122 0 -32 29 -64 58 -64 20 0
50 24 129 103 109 109 122 136 85 170 -38 35 -63 22 -170 -87z"/>
<path d="M4003 1058 c-24 -11 -53 -64 -53 -95 1 -33 23 -58 265 -306 159 -163
249 -248 268 -253 65 -15 127 30 127 93 -1 21 -6 48 -13 59 -7 12 -121 133
-254 268 -234 237 -243 246 -280 245 -21 0 -48 -5 -60 -11z"/>
</g>
</svg>
